<?xml version="1.0" ?><svg width="64px" height="64px" viewBox="0 0 64 64" style="enable-background:new 0 0 64 64;" version="1.1" xml:space="preserve" xmlns="http://www.w3.org/2000/svg" xmlns:xlink="http://www.w3.org/1999/xlink"><g id="smart_lamp"/><g id="e-wallet"/><g id="virtual_reality"/><g id="payment"/><g id="cloud_storage"/><g id="security_camera"/><g id="smart_home"/><g id="connection"><path d="M61,32c0-2.6-2-4.7-4.5-5c-0.6-3.2-1.9-6.1-3.7-8.9c1.6-2,1.6-4.9-0.3-6.7C51.6,10.5,50.3,10,49,10c-1.2,0-2.3,0.4-3.2,1.2   c-2.7-1.8-5.7-3-8.9-3.7C36.7,5,34.6,3,32,3c-2.6,0-4.7,2-5,4.5c-3.2,0.6-6.1,1.9-8.9,3.7c-2-1.6-4.9-1.6-6.7,0.3   c-1.8,1.8-1.9,4.8-0.3,6.7c-1.8,2.7-3,5.7-3.7,8.9C5,27.3,3,29.4,3,32s2,4.7,4.5,5c0.6,3.2,1.9,6.1,3.7,8.9c-1.6,2-1.6,4.9,0.3,6.7   c1,1,2.3,1.5,3.5,1.5c1.1,0,2.3-0.4,3.2-1.2c2.7,1.8,5.7,3,8.9,3.7c0.3,2.5,2.4,4.5,5,4.5c2.6,0,4.7-2,5-4.5   c3.2-0.6,6.1-1.9,8.9-3.7c0.9,0.8,2,1.2,3.2,1.2c1.3,0,2.6-0.5,3.5-1.5c1.8-1.8,1.9-4.8,0.3-6.7c1.8-2.7,3-5.7,3.7-8.9   C59,36.7,61,34.6,61,32z M49,44c-1,0-1.9,0.3-2.8,0.8L44,42.6c2.3-2.6,3.7-5.9,4-9.6h3.2c0.4,1.8,1.7,3.2,3.4,3.7   c-0.6,2.8-1.7,5.4-3.2,7.8C50.6,44.2,49.8,44,49,44z M33,51.1v-3.2c3.7-0.2,7-1.7,9.6-4l2.3,2.3c-1,1.5-1.1,3.4-0.3,5   c-2.4,1.6-5,2.7-7.8,3.2C36.2,52.8,34.8,51.5,33,51.1z M27.3,54.5c-2.8-0.6-5.4-1.7-7.8-3.2c0.8-1.6,0.7-3.5-0.3-5l2.3-2.3   c2.6,2.3,5.9,3.7,9.6,4v3.2C29.2,51.5,27.8,52.8,27.3,54.5z M12.7,44.6c-1.6-2.4-2.7-5-3.2-7.8c1.7-0.5,3-2,3.4-3.7h3.2   c0.2,3.7,1.7,7,4,9.6l-2.3,2.3C16.3,43.8,14.3,43.8,12.7,44.6z M15,20c1,0,1.9-0.3,2.8-0.8l2.3,2.3c-2.3,2.6-3.7,5.9-4,9.6h-3.2   c-0.4-1.8-1.7-3.2-3.4-3.7c0.6-2.8,1.7-5.4,3.2-7.8C13.5,19.8,14.2,20,15,20z M31,12.9v3.2c-3.7,0.2-7,1.7-9.6,4l-2.3-2.3   c1-1.5,1.1-3.4,0.3-5c2.4-1.6,5-2.7,7.8-3.2C27.8,11.2,29.2,12.5,31,12.9z M36.7,9.5c2.8,0.6,5.4,1.7,7.8,3.2   c-0.8,1.6-0.7,3.5,0.3,5L42.6,20c-2.6-2.3-5.9-3.7-9.6-4v-3.2C34.8,12.5,36.2,11.2,36.7,9.5z M51.3,19.4c1.6,2.4,2.7,5,3.2,7.8   c-1.7,0.5-3,2-3.4,3.7h-3.2c-0.2-3.7-1.7-7-4-9.6l2.3-2.3C47.1,19.7,48,20,49,20C49.8,20,50.6,19.8,51.3,19.4z M32,46   c-1.1,0-2.5-2.4-3.3-6.6c1.1-0.3,2.2-0.4,3.3-0.4c1.1,0,2.2,0.2,3.3,0.4C34.5,43.6,33.1,46,32,46z M32,37c-1.2,0-2.5,0.2-3.6,0.4   c-0.2-1.3-0.3-2.8-0.3-4.4h8c0,1.6-0.2,3.1-0.3,4.4C34.5,37.2,33.2,37,32,37z M28,31c0-1.6,0.2-3.1,0.3-4.4   c1.2,0.3,2.4,0.4,3.6,0.4c1.2,0,2.5-0.2,3.6-0.4c0.2,1.3,0.3,2.8,0.3,4.4H28z M32,25c-1.1,0-2.2-0.2-3.3-0.4   c0.8-4.2,2.2-6.6,3.3-6.6s2.5,2.4,3.3,6.6C34.2,24.8,33.1,25,32,25z M35.3,18.4c2.2,0.5,4.2,1.6,5.9,3.1c-1.2,1.1-2.5,1.9-4,2.5   C36.8,21.8,36.2,19.8,35.3,18.4z M26.8,24c-1.4-0.6-2.8-1.4-4-2.5c1.7-1.5,3.7-2.5,5.9-3.1C27.8,19.8,27.2,21.8,26.8,24z    M21.4,22.9c1.5,1.3,3.2,2.4,5,3.1c-0.2,1.6-0.4,3.3-0.4,5h-8C18.3,27.9,19.5,25.1,21.4,22.9z M26,33c0,1.7,0.2,3.4,0.4,5   c-1.8,0.7-3.5,1.7-5,3.1c-1.9-2.2-3.1-5-3.3-8.1H26z M26.8,40c0.4,2.2,1.1,4.2,1.9,5.6c-2.2-0.5-4.2-1.6-5.9-3.1   C24,41.4,25.3,40.6,26.8,40z M37.2,40c1.4,0.6,2.8,1.4,4,2.5c-1.7,1.5-3.7,2.5-5.9,3.1C36.2,44.2,36.8,42.2,37.2,40z M42.6,41.1   c-1.5-1.3-3.2-2.4-5-3.1c0.2-1.6,0.4-3.3,0.4-5h8C45.7,36.1,44.5,38.9,42.6,41.1z M38,31c0-1.7-0.2-3.4-0.4-5   c1.8-0.7,3.5-1.7,5-3.1c1.9,2.2,3.1,5,3.3,8.1H38z M59,32c0,1.7-1.3,3-3,3s-3-1.3-3-3s1.3-3,3-3S59,30.3,59,32z M51.1,12.9   c0.6,0.6,0.9,1.3,0.9,2.1s-0.3,1.6-0.9,2.1c-1.1,1.1-3.1,1.1-4.2,0C46.3,16.6,46,15.8,46,15s0.3-1.6,0.9-2.1   c0.6-0.6,1.3-0.9,2.1-0.9S50.6,12.3,51.1,12.9z M32,5c1.7,0,3,1.3,3,3s-1.3,3-3,3s-3-1.3-3-3S30.3,5,32,5z M12.9,12.9   c0.6-0.6,1.4-0.9,2.1-0.9c0.8,0,1.5,0.3,2.1,0.9c1.2,1.2,1.2,3.1,0,4.2c-1.2,1.2-3.1,1.2-4.2,0C11.7,16,11.7,14,12.9,12.9z M5,32   c0-1.7,1.3-3,3-3s3,1.3,3,3s-1.3,3-3,3S5,33.7,5,32z M12.9,51.1c-1.2-1.2-1.2-3.1,0-4.2c1.2-1.2,3.1-1.2,4.2,0   c1.2,1.2,1.2,3.1,0,4.2C16,52.3,14,52.3,12.9,51.1z M32,59c-1.7,0-3-1.3-3-3s1.3-3,3-3s3,1.3,3,3S33.7,59,32,59z M51.1,51.1   c-1.1,1.1-3.1,1.1-4.2,0C46.3,50.6,46,49.8,46,49s0.3-1.6,0.9-2.1c0.6-0.6,1.3-0.9,2.1-0.9s1.6,0.3,2.1,0.9   c0.6,0.6,0.9,1.3,0.9,2.1S51.7,50.6,51.1,51.1z"/></g><g id="game"/><g id="drone"/><g id="smart_car"/><g id="camera"/><g id="online_business"/><g id="smartwatch"/><g id="online_shopping"/><g id="smart_Television"/><g id="security"/><g id="communication"/><g id="remote_control"/><g id="satelite_dish"/></svg>