<?xml version="1.0" ?><svg width="64px" height="64px" viewBox="0 0 64 64" style="enable-background:new 0 0 64 64;" version="1.1" xml:space="preserve" xmlns="http://www.w3.org/2000/svg" xmlns:xlink="http://www.w3.org/1999/xlink"><g id="smart_lamp"/><g id="e-wallet"/><g id="virtual_reality"/><g id="payment"/><g id="cloud_storage"/><g id="security_camera"/><g id="smart_home"/><g id="connection"/><g id="game"/><g id="drone"/><g id="smart_car"/><g id="camera"/><g id="online_business"><g><path d="M32,11.6c-3.6,0-7,1.8-9,4.9c-0.3,0.5-0.2,1.1,0.3,1.4c0.5,0.3,1.1,0.2,1.4-0.3c1.6-2.5,4.4-4,7.4-4s5.7,1.5,7.4,4    c0.2,0.3,0.5,0.4,0.8,0.4c0.2,0,0.4-0.1,0.6-0.2c0.5-0.3,0.6-0.9,0.3-1.4C39,13.4,35.6,11.6,32,11.6z"/><path d="M43.4,14.6c0.2,0.3,0.5,0.4,0.8,0.4c0.2,0,0.4-0.1,0.6-0.2c0.4-0.3,0.5-1,0.2-1.4C41.9,9.3,37.1,7,32,7    c-5.1,0-9.9,2.3-13,6.4c-0.3,0.4-0.3,1.1,0.2,1.4c0.4,0.3,1.1,0.3,1.4-0.2C23.3,11,27.5,9,32,9C36.5,9,40.7,11,43.4,14.6z"/><path d="M49,11c-4.2-5.1-10.4-8-17-8c-6.6,0-12.7,2.9-17,8c-0.4,0.4-0.3,1.1,0.1,1.4c0.4,0.4,1.1,0.3,1.4-0.1C20.4,7.6,26,5,32,5    c6,0,11.6,2.6,15.4,7.3c0.2,0.2,0.5,0.4,0.8,0.4c0.2,0,0.5-0.1,0.6-0.2C49.2,12,49.3,11.4,49,11z"/><path d="M45,45H33v-3.4c1.5-0.2,4.6-0.8,6.8-3c3-3,3.1-7.6,3.1-7.8c0-0.3-0.1-0.5-0.3-0.7c-0.2-0.2-0.5-0.3-0.7-0.3    c-0.2,0-4.8,0.1-7.8,3.1c-0.4,0.4-0.8,0.9-1.1,1.4v-4.4c3.4-0.5,6-3.4,6-6.9c0-3.9-3.1-7-7-7c-3.9,0-7,3.1-7,7    c0,3.5,2.6,6.4,6,6.9v4.5c-0.3-0.5-0.7-1-1.2-1.5c-3-3-7.6-3.1-7.8-3.1c-0.3,0-0.5,0.1-0.7,0.3c-0.2,0.2-0.3,0.5-0.3,0.7    c0,0.2,0.1,4.8,3.1,7.8c2.2,2.2,5.3,2.9,6.8,3V45H19c-0.6,0-1,0.4-1,1v4c0,0.6,0.4,1,1,1h1.3l2.8,9.3c0.1,0.4,0.5,0.7,1,0.7h16    c0.4,0,0.8-0.3,1-0.7l2.8-9.3H45c0.6,0,1-0.4,1-1v-4C46,45.4,45.6,45,45,45z M35.5,34.3c1.6-1.6,3.9-2.2,5.2-2.4    c-0.2,1.4-0.8,3.6-2.4,5.2c-1.6,1.6-3.9,2.2-5.2,2.4C33.3,38.2,33.9,35.9,35.5,34.3z M27,23c0-2.8,2.2-5,5-5s5,2.2,5,5s-2.2,5-5,5    S27,25.8,27,23z M25.6,37.2c-1.6-1.6-2.2-3.9-2.4-5.2c1.4,0.2,3.6,0.8,5.2,2.4c1.6,1.6,2.2,3.9,2.4,5.2    C29.5,39.4,27.2,38.8,25.6,37.2z M39.3,59H24.7l-2.4-8h19.3L39.3,59z M44,49h-1H21h-1v-2h24V49z"/><path d="M35,24.5c0-1.4-1.1-2.5-2.5-2.5h-1c-0.3,0-0.5-0.2-0.5-0.5s0.2-0.5,0.5-0.5H34c0.6,0,1-0.4,1-1s-0.4-1-1-1h-2.5    c-1.4,0-2.5,1.1-2.5,2.5s1.1,2.5,2.5,2.5h1c0.3,0,0.5,0.2,0.5,0.5S32.8,25,32.5,25H30c-0.6,0-1,0.4-1,1s0.4,1,1,1h2.5    C33.9,27,35,25.9,35,24.5z"/></g></g><g id="smartwatch"/><g id="online_shopping"/><g id="smart_Television"/><g id="security"/><g id="communication"/><g id="remote_control"/><g id="satelite_dish"/></svg>